
        <svg xmlns="http://www.w3.org/2000/svg" xmlns:xlink="http://www.w3.org/1999/xlink" version="1.1" width="3162.1621621621625" 
        height="1266.5109977476518" viewBox="0 0 3162.1621621621625 1266.5109977476518">
			
			<g transform="scale(8.108108108108109) translate(10, 10)">
				<defs id="SvgjsDefs1399"></defs><g id="SvgjsG1400" featureKey="symbolFeature-0" transform="matrix(1.5481309972624946,0,0,1.5481309972624946,-27.40499962971568,-9.305811237438238)" fill="#88304e"><g xmlns="http://www.w3.org/2000/svg"><path d="M81.822,60.545c-2.199-17.219-1.498-34.591-0.021-51.886c0.151-1.777-0.186-1.803-1.371-0.471   c-2.837,3.185-8.315,5.257-14.554,5.095c-6.45-0.168-11.952-2.684-14.513-6.192c-1.052-1.44-1.676-1.44-2.729,0   c-2.561,3.508-8.063,6.023-14.512,6.192c-6.237,0.163-11.714-1.91-14.552-5.093c-1.187-1.332-1.525-1.306-1.373,0.471   c1.477,17.294,2.182,34.664-0.021,51.882c-0.218,1.701-0.474,3.414-0.474,5.184C17.704,83.119,50,93.99,50,93.99   s32.296-10.871,32.296-28.265C82.296,63.957,82.04,62.245,81.822,60.545z M50.001,90.57c-8.991-3.247-29.068-12.983-29.068-24.845   c0-1.341,0.178-2.697,0.365-4.134l0.083-0.64c2.113-16.52,1.552-32.79,0.479-47.053c3.252,1.684,7.283,2.622,11.58,2.622   c0.254,0,0.51-0.003,0.767-0.009c6.429-0.169,12.281-2.444,15.792-6.048c3.511,3.604,9.364,5.879,15.791,6.048   c0.259,0.006,0.515,0.009,0.769,0.009c4.297,0,8.329-0.939,11.579-2.622c-1.072,14.255-1.632,30.521,0.481,47.056l0.08,0.626   c0.188,1.439,0.366,2.801,0.366,4.145C79.066,77.61,58.993,87.331,50.001,90.57z"></path><path d="M66.56,18.135c-0.267,0-0.536-0.003-0.811-0.01C59.621,17.964,53.865,15.95,50,12.668V47.08h25.821   c-0.54-11.268-0.099-21.812,0.514-30.623C73.37,17.56,70.041,18.135,66.56,18.135z"></path><path d="M22.983,61.158l-0.083,0.649c-0.181,1.38-0.351,2.685-0.351,3.918c0,10.258,17.64,19.478,27.451,23.124V47.08H24.181   C23.961,51.68,23.594,56.384,22.983,61.158z"></path></g></g><g id="SvgjsG1401" featureKey="nameFeature-0" transform="matrix(1.3050588634597298,0,0,1.3050588634597298,118.16462188908466,42.26734348672952)" fill="#88304e"><path d="M24.375 29.219 l1.7188 1.5625 c0 -0.052109 0.026016 -0.078125 0.078125 -0.078125 z M20 32.4219 c-1.8229 0 -3.4376 -0.33844 -4.8438 -1.0155 c-1.5104 -0.625 -2.7864 -1.5365 -3.828 -2.7344 c-1.0938 -1.0938 -1.9271 -2.4219 -2.5 -3.9844 c-0.57289 -1.4063 -0.85938 -3.0469 -0.85938 -4.9219 c0 -1.8229 0.28648 -3.4635 0.85938 -4.9219 c0.52086 -1.4584 1.3281 -2.7865 2.4219 -3.9844 c1.0416 -1.0938 2.3177 -2.0052 3.828 -2.7344 c1.4063 -0.67711 3.0209 -1.0156 4.8438 -1.0156 c1.6146 0 3.2552 0.33852 4.9219 1.0156 c1.4584 0.67711 2.7344 1.6146 3.8281 2.8125 c0.98961 1.0938 1.823 2.4219 2.5001 3.9844 c0.57289 1.6146 0.85938 3.2552 0.85938 4.9219 c0 1.25 -0.15625 2.4479 -0.46875 3.5938 c-0.26039 1.0416 -0.70313 2.0833 -1.3281 3.1249 l-6.1719 -5.5469 l-4.0625 4.5313 l0.078125 0.078125 l0.078125 -0.078125 l4.2188 3.75 l1.7969 1.4844 l-0.078125 0 l8.5156 7.4219 l3.9844 -4.375 l-3.5938 -3.0469 c1.1459 -1.5104 2.0313 -3.2291 2.6563 -5.1563 c0.625 -1.875 0.9375 -3.8281 0.9375 -5.8594 c0 -2.4479 -0.46875 -4.8177 -1.4063 -7.1093 c-0.83336 -2.0834 -2.0834 -4.0105 -3.75 -5.7813 c-1.5104 -1.5625 -3.4635 -2.8906 -5.8594 -3.9844 c-2.2396 -0.9375 -4.7396 -1.4063 -7.5 -1.4063 c-2.8646 0 -5.3906 0.49477 -7.5781 1.4844 c-2.2916 0.9375 -4.2448 2.2656 -5.8594 3.9844 c-1.6146 1.4584 -2.9167 3.3855 -3.9063 5.7813 c-0.88539 2.1354 -1.3281 4.5052 -1.3281 7.1093 c0 2.3959 0.44273 4.7656 1.3281 7.1094 c0.9375 2.2916 2.2135 4.2448 3.8281 5.8594 c1.6666 1.6666 3.6198 2.9688 5.8594 3.9063 c2.1875 0.98961 4.6875 1.4844 7.5 1.4844 c2.1354 0 4.0885 -0.3125 5.8594 -0.9375 c0.052109 0 0.18234 -0.052109 0.3907 -0.15625 c-0.57289 -0.46875 -1.4713 -1.25 -2.6953 -2.3438 s-2.1224 -1.875 -2.6953 -2.3438 l-0.78125 0 z M20.156 25.547 l-0.078125 0.078125 l4.2969 3.5938 z M69.14099999999999 1.328000000000003 l0 21.25 c0 3.4375 -0.83336 5.9896 -2.5 7.6563 c-0.88539 0.98961 -2.1094 1.7188 -3.6719 2.1875 l0 6.0938 c1.25 -0.15625 2.3438 -0.41664 3.2813 -0.78125 c1.9271 -0.67711 3.5938 -1.6927 5 -3.0469 c1.4063 -1.5104 2.4479 -3.2552 3.125 -5.2343 c0.78125 -2.0313 1.1719 -4.4271 1.1719 -7.1875 l0 -20.938 l-6.4063 0 z M50.938 1.4059999999999988 l0 21.25 c0 3.3334 0.83336 5.8855 2.5 7.6563 c0.98961 0.98961 2.2136 1.6927 3.672 2.1094 l0 6.1719 c-0.88539 -0.10414 -1.9791 -0.36453 -3.2813 -0.78117 c-1.9791 -0.72914 -3.6198 -1.7708 -4.9219 -3.1249 c-1.4584 -1.3541 -2.5261 -3.0729 -3.2032 -5.1563 c-0.72914 -1.875 -1.0938 -4.2709 -1.0938 -7.1875 l0 -20.938 l6.3281 0 z M86.0938 1.4059999999999988 l27.813 0 l0 5.9375 l-27.813 0 l0 -5.9375 z M86.0938 32.6562 l27.734 0 l0 5.9375 l-27.734 0 l0 -5.9375 z M86.0938 16.875 l25.078 0 l0 5.8594 l-25.078 0 l0 -5.8594 z M127.0313 1.4059999999999988 l6.4063 0 l0 31.25 l19.531 0 l0 5.9375 l-25.938 0 l0 -37.188 z M167.0313 1.4059999999999988 l6.4063 0 l0 31.25 l19.531 0 l0 5.9375 l-25.938 0 l0 -37.188 z"></path></g>
			</g>
		</svg>
	